<svg width="14" height="10" viewBox="0 0 14 10" fill="none" xmlns="http://www.w3.org/2000/svg">
<path d="M10.8734 4.92667C12.047 3.96266 12.8078 2.58655 13 1.08C13.0105 0.992454 13.0037 0.903694 12.9799 0.81879C12.9561 0.733886 12.9158 0.6545 12.8613 0.585166C12.8069 0.515831 12.7393 0.457906 12.6624 0.414697C12.5855 0.371488 12.5009 0.343841 12.4134 0.333335C12.3258 0.322829 12.237 0.32967 12.1521 0.353467C12.0672 0.377265 11.9879 0.417552 11.9185 0.472029C11.8492 0.526506 11.7913 0.594106 11.748 0.670969C11.7048 0.747833 11.6772 0.832454 11.6667 0.920002C11.5073 2.04419 10.9475 3.07306 10.0901 3.81745C9.23272 4.56185 8.13545 4.97172 7.00002 4.97172C5.86459 4.97172 4.76732 4.56185 3.90995 3.81745C3.05258 3.07306 2.49274 2.04419 2.33336 0.920002C2.32285 0.832454 2.2952 0.747833 2.25199 0.670969C2.20878 0.594106 2.15086 0.526506 2.08152 0.472029C2.01219 0.417552 1.9328 0.377265 1.8479 0.353467C1.763 0.32967 1.67424 0.322829 1.58669 0.333335C1.49914 0.343841 1.41452 0.371488 1.33766 0.414697C1.26079 0.457906 1.19319 0.515831 1.13872 0.585166C1.08424 0.6545 1.04395 0.733886 1.02015 0.81879C0.996357 0.903694 0.989516 0.992454 1.00002 1.08C1.19058 2.58556 1.9489 3.96152 3.12002 4.92667L1.58669 6.47334C1.47747 6.60087 1.4204 6.76492 1.42688 6.9327C1.43336 7.10049 1.50292 7.25965 1.62165 7.37838C1.74038 7.49711 1.89954 7.56666 2.06732 7.57314C2.2351 7.57962 2.39915 7.52255 2.52669 7.41334L4.26669 5.68C4.91322 6.00672 5.61326 6.21448 6.33336 6.29333V8.66667C6.33336 8.84348 6.40359 9.01305 6.52862 9.13807C6.65364 9.2631 6.82321 9.33334 7.00002 9.33334C7.17683 9.33334 7.3464 9.2631 7.47143 9.13807C7.59645 9.01305 7.66669 8.84348 7.66669 8.66667V6.29333C8.38678 6.21448 9.08682 6.00672 9.73336 5.68L11.4734 7.41334C11.6009 7.52255 11.7649 7.57962 11.9327 7.57314C12.1005 7.56666 12.2597 7.49711 12.3784 7.37838C12.4971 7.25965 12.5667 7.10049 12.5732 6.9327C12.5796 6.76492 12.5226 6.60087 12.4134 6.47334L10.8734 4.92667Z" fill="#424242"/>
</svg>
