<svg width="22" height="23" viewBox="0 0 22 23" fill="none" xmlns="http://www.w3.org/2000/svg">
<path d="M12.2708 0.58917C11.8486 0.209842 11.3011 0 10.7335 0C10.1659 0 9.6184 0.209842 9.19621 0.58917L0.762134 8.16757C0.522334 8.38321 0.330561 8.64688 0.199262 8.94144C0.0679635 9.236 7.38485e-05 9.55488 0 9.87739V20.696C0 21.3061 0.242342 21.8911 0.673714 22.3225C1.10509 22.7539 1.69015 22.9962 2.3002 22.9962H5.36714C5.97719 22.9962 6.56226 22.7539 6.99363 22.3225C7.425 21.8911 7.66734 21.3061 7.66734 20.696V14.5621C7.66734 14.3588 7.74812 14.1638 7.89191 14.02C8.0357 13.8762 8.23073 13.7954 8.43408 13.7954H13.0345C13.2378 13.7954 13.4329 13.8762 13.5766 14.02C13.7204 14.1638 13.8012 14.3588 13.8012 14.5621V20.696C13.8012 21.3061 14.0436 21.8911 14.4749 22.3225C14.9063 22.7539 15.4914 22.9962 16.1014 22.9962H19.1684C19.7784 22.9962 20.3635 22.7539 20.7948 22.3225C21.2262 21.8911 21.4686 21.3061 21.4686 20.696V9.87739C21.4685 9.55488 21.4006 9.236 21.2693 8.94144C21.138 8.64688 20.9462 8.38321 20.7064 8.16757L12.2723 0.58917H12.2708Z" fill="#EA526F"/>
</svg>
