<svg width="572" height="291" fill="none" xmlns="http://www.w3.org/2000/svg"><path d="M625.494-6.58h-643.99v394.994h643.99V-6.579z" fill="#EA526F"/><path fill-rule="evenodd" clip-rule="evenodd" d="M254.698 85.036s38.08-8.078 15.49 97.741c-11.455 53.657 20.305 85.435 46.86 84.914 26.553-.521 24.991-57.825 11.454-84.914-13.537-27.088-59.514-133.556-21.347-187.017 36.446-51.052 80.616 6.3 83.306 27.61 6.248 49.49-22.909 103.667-15.099 135.444 7.81 31.778 23.43 60.95 48.943 60.429 25.512-.521 55.711-44.28 49.984-92.206-5.728-47.927-13.017-160.45 61.959-170.868 74.976-10.419 96.281 68.648 93.72 89.602-8.851 72.41-37.979 89.735-81.745 187.538-64.923 145.085-87.861 168.917-157.762 183.894-70.725 15.155-144.094-97.936-160.365-159.798-16.271-61.861-32.151-172.177 24.602-172.369z" fill="#FF8A5B"/><path fill-rule="evenodd" clip-rule="evenodd" d="M-113.681 42.645s211.012 160.25 226.266 282.347c15.254 122.095-50.846 128.454-87.71 100.474-36.863-27.98-106.468-122.685-132.71-231.04-26.241-108.355-103.43 13.544-90.413 80.615 13.016 67.071 23.226 266.248 84.567 266.248 61.341 0 617.075 66.535 510.822-37.645-50.846-49.856-103.726-62.066-146.437-98.694-42.711-36.628-117.963-248.261-150.505-335.761C67.657-18.313-41.299-205.525-107.835-207.56c-66.536-2.035-113.966 152.442-5.846 250.207v-.002z" fill="#FF8A5B"/></svg>