<svg width="19" height="23" viewBox="0 0 19 23" fill="none" xmlns="http://www.w3.org/2000/svg">
<path d="M9.2 0V6.9C9.2 7.51 9.44232 8.09501 9.87365 8.52635C10.305 8.95768 10.89 9.2 11.5 9.2H18.4V20.7C18.4 21.31 18.1577 21.895 17.7263 22.3263C17.295 22.7577 16.71 23 16.1 23H2.3C1.69 23 1.10499 22.7577 0.673654 22.3263C0.242321 21.895 0 21.31 0 20.7V2.3C0 1.69 0.242321 1.10499 0.673654 0.673654C1.10499 0.242321 1.69 0 2.3 0H9.2Z" fill="#DEDEDE"/>
<path d="M10.925 0.574951V6.89995C10.925 7.05245 10.9856 7.1987 11.0934 7.30654C11.2012 7.41437 11.3475 7.47495 11.5 7.47495H17.825L10.925 0.574951Z" fill="#DEDEDE"/>
</svg>
