<svg width="13" height="13" viewBox="0 0 13 13" fill="none" xmlns="http://www.w3.org/2000/svg">
<path d="M7.10753 8.16753C6.1879 8.82137 5.0562 9.10585 3.9367 8.96461C2.81721 8.82336 1.79163 8.26669 1.06322 7.40492C0.334819 6.54315 -0.0432517 5.43918 0.00394069 4.3118C0.0511331 3.18441 0.520144 2.1159 1.31802 1.31802C2.1159 0.520144 3.18441 0.0511331 4.3118 0.00394069C5.43918 -0.0432517 6.54315 0.334819 7.40492 1.06322C8.26669 1.79163 8.82336 2.81721 8.96461 3.9367C9.10585 5.0562 8.82137 6.1879 8.16753 7.10753L11.7805 10.7195C11.8542 10.7882 11.9133 10.871 11.9543 10.963C11.9953 11.055 12.0173 11.1543 12.0191 11.255C12.0209 11.3557 12.0024 11.4557 11.9647 11.5491C11.9269 11.6425 11.8708 11.7274 11.7996 11.7986C11.7284 11.8698 11.6435 11.9259 11.5501 11.9637C11.4567 12.0014 11.3567 12.0199 11.256 12.0181C11.1553 12.0163 11.056 11.9943 10.964 11.9533C10.872 11.9123 10.7892 11.8532 10.7205 11.7795L7.10753 8.16753ZM7.50053 4.49953C7.50053 3.70388 7.18446 2.94082 6.62185 2.37821C6.05925 1.8156 5.29618 1.49953 4.50053 1.49953C3.70488 1.49953 2.94182 1.8156 2.37921 2.37821C1.8166 2.94082 1.50053 3.70388 1.50053 4.49953C1.50053 5.29518 1.8166 6.05825 2.37921 6.62085C2.94182 7.18346 3.70488 7.49953 4.50053 7.49953C5.29618 7.49953 6.05925 7.18346 6.62185 6.62085C7.18446 6.05825 7.50053 5.29518 7.50053 4.49953Z" fill="#424242"/>
</svg>
